<?xml version="1.0" encoding="utf-8"?>
<!-- Generator: Adobe Illustrator 17.0.0, SVG Export Plug-In . SVG Version: 6.00 Build 0)  -->
<!DOCTYPE svg PUBLIC "-//W3C//DTD SVG 1.1//EN" "http://www.w3.org/Graphics/SVG/1.1/DTD/svg11.dtd">
<svg version="1.1" id="Capa_1" xmlns="http://www.w3.org/2000/svg" xmlns:xlink="http://www.w3.org/1999/xlink" x="0px" y="0px"
	 width="512px" height="512px" viewBox="0 0 512 512" enable-background="new 0 0 512 512" xml:space="preserve">
<g>
	<path fill="#FFFFFF" d="M85.333,217.301h110.933c4.719,0,8.533-3.823,8.533-8.533c0-4.71-3.814-8.533-8.533-8.533H85.333
		c-4.719,0-8.533,3.823-8.533,8.533C76.8,213.478,80.614,217.301,85.333,217.301z"/>
	<path fill="#FFFFFF" d="M307.2,251.435H85.333c-4.719,0-8.533,3.823-8.533,8.533c0,4.71,3.814,8.533,8.533,8.533H307.2
		c4.719,0,8.533-3.823,8.533-8.533C315.733,255.258,311.919,251.435,307.2,251.435z"/>
	<path fill="#FFFFFF" d="M307.2,302.635H85.333c-4.719,0-8.533,3.823-8.533,8.533c0,4.71,3.814,8.533,8.533,8.533H307.2
		c4.719,0,8.533-3.823,8.533-8.533C315.733,306.458,311.919,302.635,307.2,302.635z"/>
	<path fill="#FFFFFF" d="M461.414,21.632l-291.345-0.597c-27.904,0-50.603,22.699-50.603,50.603v43.725l-68.864,0.145
		C22.699,115.507,0,138.206,0,166.11v180.403c0,27.904,22.699,50.594,50.603,50.594H102.4v85.333c0,3.524,2.167,6.69,5.461,7.962
		c0.998,0.384,2.039,0.572,3.072,0.572c2.355,0,4.668-0.981,6.315-2.79l82.807-91.093l141.875-0.58
		c27.904,0,50.603-22.699,50.603-50.594v-0.964l44.885,49.374c1.647,1.809,3.959,2.79,6.315,2.79c1.033,0,2.074-0.188,3.072-0.572
		c3.294-1.271,5.461-4.437,5.461-7.962v-85.333h9.131c27.904,0,50.603-22.699,50.603-50.594V72.235
		C512,44.339,489.31,21.641,461.414,21.632z M375.467,345.907c0,18.492-15.044,33.527-33.57,33.527l-145.664,0.597
		c-2.389,0.009-4.676,1.024-6.281,2.79l-70.485,77.542v-71.799c0-4.71-3.814-8.533-8.533-8.533H50.603
		c-18.492,0-33.536-15.044-33.536-33.527V166.101c0-18.492,15.044-33.536,33.553-33.536l77.38-0.162l0,0c0.009,0,0.009,0,0.017,0
		l213.914-0.444c18.492,0,33.536,15.044,33.536,33.536v157.363V345.907z M494.933,252.638c0,18.492-15.044,33.527-33.536,33.527
		h-17.664c-4.719,0-8.533,3.823-8.533,8.533v71.799l-42.667-46.933V165.504c0-27.904-22.699-50.603-50.62-50.603l-205.38,0.418
		V71.629c0-18.492,15.044-33.536,33.519-33.536l291.337,0.597c0.009,0,0.009,0,0.017,0c18.492,0,33.536,15.044,33.536,33.536
		v180.412H494.933z"/>
</g>
</svg>
