<?xml version="1.0" encoding="utf-8"?>
<!-- Generator: Adobe Illustrator 17.0.0, SVG Export Plug-In . SVG Version: 6.00 Build 0)  -->
<!DOCTYPE svg PUBLIC "-//W3C//DTD SVG 1.1//EN" "http://www.w3.org/Graphics/SVG/1.1/DTD/svg11.dtd">
<svg version="1.1" xmlns="http://www.w3.org/2000/svg" xmlns:xlink="http://www.w3.org/1999/xlink" x="0px" y="0px"
	 width="773.961px" height="299.985px" viewBox="0 0 773.961 299.985" enable-background="new 0 0 773.961 299.985"
	 xml:space="preserve">
<g id="Capa_1">
</g>
<g id="Capa_4">
	<g opacity="0.6">
		<path fill="#FFFFFF" d="M276.955,147.915c-4.66,0-8.494-0.932-11.29-1.759v-33.711h9.839c9.732,0,15.587,4.192,15.587,17.139
			C291.092,141.234,286.068,147.915,276.955,147.915z M275.246,115.652h-5.593v27.859c1.503,0.469,4.353,1.039,7.457,1.039
			c6.164,0,9.79-4.143,9.79-15.019C286.9,119.538,283.43,115.652,275.246,115.652z"/>
		<path fill="#FFFFFF" d="M299.531,147.397v-22.215l-2.799-0.568v-2.591h6.63v25.373H299.531z M299.167,112.028h4.195v4.143h-4.195
			V112.028z"/>
		<path fill="#FFFFFF" d="M323.144,125.441c-0.727-0.259-1.867-0.466-3.264-0.466c-2.431,0-4.398,1.398-5.698,2.747v19.675h-3.934
			v-25.373h2.643l0.724,3.211c1.086-1.45,3.316-3.574,6.576-3.574c1.867,0,3.006,0.363,3.211,0.415L323.144,125.441z"/>
		<path fill="#FFFFFF" d="M329.615,135.849c0,6.266,3.209,9.011,8.026,9.011c3.263,0,6.162-1.501,7.87-2.536l0.984,2.794
			c-2.121,1.295-5.436,2.798-9.268,2.798c-6.94,0-11.547-4.61-11.547-13.362c0-8.025,3.934-13.048,10.875-13.048
			c7.147,0,10.149,5.747,10.149,12.117v2.228H329.615z M336.4,124.509c-4.816,0-6.784,4.246-6.784,8.596h13.257
			C342.872,128.702,341.369,124.509,336.4,124.509z"/>
		<path fill="#FFFFFF" d="M371.453,145.69c-1.552,0.878-4.761,2.225-8.438,2.225c-6.42,0-11.081-3.777-11.081-13.204
			c0-8.597,4.714-13.206,11.081-13.206c2.899,0,6.008,0.622,8.287,2.02l-1.139,2.796c-1.969-1.139-4.355-1.657-6.94-1.657
			c-4.558,0-7.357,3.626-7.357,10.048c0,7.145,2.799,10.149,7.357,10.149c2.95,0,5.49-1.037,7.299-2.123L371.453,145.69z"/>
		<path fill="#FFFFFF" d="M395.378,145.69c-1.552,0.878-4.766,2.225-8.443,2.225c-6.417,0-11.081-3.777-11.081-13.204
			c0-8.597,4.714-13.206,11.081-13.206c2.904,0,6.008,0.622,8.289,2.02l-1.14,2.796c-1.969-1.139-4.349-1.657-6.935-1.657
			c-4.56,0-7.357,3.626-7.357,10.048c0,7.145,2.798,10.149,7.357,10.149c2.945,0,5.485-1.037,7.298-2.123L395.378,145.69z"/>
		<path fill="#FFFFFF" d="M402.572,147.397v-22.215l-2.797-0.568v-2.591h6.63v25.373H402.572z M402.209,112.028h4.195v4.143h-4.195
			V112.028z"/>
		<path fill="#FFFFFF" d="M434.159,134.658c0,8.545-4.141,13.257-10.925,13.257c-6.888,0-10.824-4.61-10.824-13.257
			c0-7.455,3.524-13.154,10.824-13.154C430.279,121.505,434.159,127.098,434.159,134.658z M430.119,134.658
			c0-6.627-2.226-10.202-6.886-10.202c-4.763,0-6.835,3.728-6.835,10.202c0,6.215,1.811,10.307,6.835,10.307
			C428.154,144.965,430.119,141.444,430.119,134.658z M417.743,118.087l-0.568-2.33l11.44-4.248l0.779,2.953L417.743,118.087z"/>
		<path fill="#FFFFFF" d="M456.065,147.397v-15.327c0-4.817-1.503-7.455-5.803-7.455c-2.64,0-4.661,1.5-6.213,2.899v19.884h-3.934
			v-25.373h2.643l0.773,3.004c1.45-1.503,4.145-3.523,7.977-3.523c5.954,0,8.594,3.574,8.594,9.892v16H456.065z"/>
	</g>
	<g>
		<path fill="#FFFFFF" d="M285.591,234.267c-17.867,0-26.797-13.59-26.797-34.072c0-21.166,10.289-33.4,26.989-33.4
			c7.958,0,15.434,1.944,20.195,5.343l-2.915,6.017c-3.787-2.91-10.486-4.756-16.893-4.756c-13.397,0-19.609,10.678-19.609,26.503
			c0,16.892,6.506,27.761,19.416,27.761c7.186,0,13.399-2.715,18.057-6.208l2.328,6.015
			C300.829,231.359,294.034,234.267,285.591,234.267z"/>
		<path fill="#FFFFFF" d="M315.496,233.3v-66.989h7.38v19.127c0,1.941-0.292,4.949-0.681,6.017
			c2.621-2.815,7.378-6.699,14.367-6.699c11.649,0,16.405,6.506,16.405,18.544v30h-7.573v-28.739
			c0-8.834-3.491-13.982-10.871-13.982c-4.95,0-8.737,2.819-11.647,5.441v37.28H315.496z"/>
		<path fill="#FFFFFF" d="M368.216,233.3v-41.65l-5.243-1.07v-4.854h12.428V233.3H368.216z M367.538,166.991h7.863v7.767h-7.863
			V166.991z"/>
		<path fill="#FFFFFF" d="M388.704,220.194v-53.883h7.277v56.601c0,4.074,1.85,5.728,7.089,5.728h1.554v5.048
			c0,0-2.333,0.578-4.66,0.578C390.935,234.267,388.704,229.121,388.704,220.194z"/>
		<path fill="#FFFFFF" d="M419.674,211.646c0,11.75,6.019,16.893,15.047,16.893c6.113,0,11.551-2.813,14.753-4.751l1.846,5.238
			c-3.98,2.424-10.193,5.241-17.381,5.241c-13.006,0-21.647-8.639-21.647-25.044c0-15.051,7.382-24.466,20.384-24.466
			c13.401,0,19.031,10.776,19.031,22.716v4.173H419.674z M432.388,190.387c-9.028,0-12.714,7.963-12.714,16.119h24.851
			C444.525,198.252,441.71,190.387,432.388,190.387z"/>
		<path fill="#FFFFFF" d="M488.411,234.267c-17.866,0-26.796-13.59-26.796-34.072c0-21.166,10.288-33.4,26.99-33.4
			c7.958,0,15.431,1.944,20.19,5.343l-2.91,6.017c-3.787-2.91-10.489-4.756-16.894-4.756c-13.399,0-19.612,10.678-19.612,26.503
			c0,16.892,6.506,27.761,19.418,27.761c7.184,0,13.397-2.715,18.053-6.208l2.333,6.015
			C503.652,231.359,496.854,234.267,488.411,234.267z"/>
		<path fill="#FFFFFF" d="M554.044,209.417c0,16.018-7.769,24.85-20.488,24.85c-12.91,0-20.287-8.639-20.287-24.85
			c0-13.982,6.6-24.661,20.287-24.661C546.762,184.757,554.044,195.241,554.044,209.417z M546.473,209.417
			c0-12.427-4.178-19.125-12.917-19.125c-8.93,0-12.81,6.989-12.81,19.125c0,11.649,3.397,19.314,12.81,19.314
			C542.782,228.732,546.473,222.131,546.473,209.417z"/>
		<path fill="#FFFFFF" d="M602.198,203.3v30h-7.476v-28.739c0-9.028-2.617-13.982-10.678-13.982c-5.05,0-8.543,2.819-11.456,5.441
			v37.28h-7.378v-47.574h4.856l1.552,5.73c2.717-2.815,7.476-6.699,14.466-6.699c7.087,0,11.649,2.526,13.977,7.284
			c2.72-3.01,7.963-7.284,14.858-7.284c11.649,0,16.794,6.506,16.794,18.544v30h-7.473v-28.739c0-9.028-3.402-13.982-11.46-13.982
			c-4.463,0-8.443,2.626-11.356,5.441C602.004,198.152,602.198,200.582,602.198,203.3z"/>
		<path fill="#FFFFFF" d="M650.748,236.499v15.243h-7.476v-66.016h5.73l1.163,5.635c3.298-3.691,8.349-6.604,13.884-6.604
			c12.136,0,18.151,8.641,18.151,24.661c0,16.792-8.347,24.85-19.703,24.85c-5.73,0-9.421-2.039-12.819-5.434
			C649.678,228.833,650.748,233.489,650.748,236.499z M650.748,223.589c2.913,3.009,6.893,5.143,11.262,5.143
			c8.639,0,12.714-5.627,12.714-19.314c0-12.528-3.587-18.932-12.227-18.932c-4.661,0-8.934,2.617-11.749,5.535V223.589z"/>
		<path fill="#FFFFFF" d="M717.644,192.137c-1.359-0.487-3.496-0.874-6.119-0.874c-4.565,0-8.252,2.624-10.678,5.146V233.3h-7.378
			v-47.574h4.95l1.358,6.022c2.039-2.717,6.213-6.7,12.332-6.7c3.491,0,5.63,0.678,6.019,0.778L717.644,192.137z"/>
		<path fill="#FFFFFF" d="M754.829,233.3l-1.26-6.12c-2.815,3.591-7.963,7.087-14.664,7.087c-9.704,0-15.336-6.502-15.336-14.564
			c0-8.251,6.019-13.59,16.794-13.59h12.33v-3.784c0-8.251-3.595-11.75-10.778-11.75c-6.015,0-10.869,1.557-14.366,3.109
			l-1.944-5.337c3.791-1.652,9.421-3.594,17.281-3.594c11.262,0,16.991,5.823,16.991,17.184V233.3H754.829z M752.694,211.162
			h-11.166c-8.054,0-10.775,3.496-10.775,8.254c0,5.725,3.107,9.512,10.002,9.512c4.656,0,9.123-2.719,11.938-5.924V211.162z"/>
	</g>
	<path fill-rule="evenodd" clip-rule="evenodd" fill="#FFFFFF" d="M114.965,100.426l-48.177,9.459
		c-8.871,0.781-15.434,8.597-14.658,17.456l6.69,76.45c0.774,8.869,8.597,15.426,17.468,14.651l90.328-2.89
		c8.872-0.781,15.434-8.592,14.658-17.45l-8.259-94.434c-0.776-8.864-5.283-12.637-14.156-11.863l-30.357,5.965l-3.069-14.767
		l40.268-10.19c10.107-0.89,19.018,6.583,19.906,16.687l10.931,124.972c0.883,10.098-6.59,19.002-16.697,19.883l-113.672,0.734
		c-10.111,0.883-19.016-6.586-19.903-16.687l-8.538-97.54c-0.881-10.102,6.593-19.002,16.706-19.889l57.742-14.616L114.965,100.426z
		"/>
	<path opacity="0.4" fill-rule="evenodd" clip-rule="evenodd" fill="#FFFFFF" d="M176.67,145.084l-33.559,9.915
		c-10.072,1.237-19.239-5.917-20.47-15.981l-7.638-38.536l-9.554-48.196c-1.237-10.062,5.933-19.222,16-20.463l84.802-6.124
		c10.07-1.24,19.232,5.916,20.465,15.983l10.584,69.76c1.237,10.065-5.926,19.223-16,20.467l-31.149,9.197l-1.147-13.187
		l20.903-5.609c8.587-1.056,14.695-8.867,13.642-17.447l-6.338-53.97c-1.055-8.582-7.525-11.933-16.112-10.878l-66.785,2.538
		c-8.58,1.055-14.688,8.869-13.639,17.449l7.862,37.823l5.518,26.519c1.053,8.578,8.865,14.681,17.451,13.623l23.979-6.425
		L176.67,145.084z"/>
	<g>
		<path fill="#FFFFFF" d="M457.187,278.109h7.49v7.308h-7.49V278.109z"/>
	</g>
	<path fill-rule="evenodd" clip-rule="evenodd" fill="#FFFFFF" d="M112.449,86.322"/>
	<line fill-rule="evenodd" clip-rule="evenodd" fill="#FFFFFF" x1="125.706" y1="82.965" x2="128.768" y2="97.727"/>
	<g>
		<rect x="261.945" y="270.272" fill="#0064AA" width="116.9" height="23.644"/>
		<rect x="378.845" y="270.272" fill="#C5373C" width="168.455" height="23.644"/>
	</g>
</g>
</svg>
