<?xml version="1.0" encoding="utf-8"?>
<!-- Generator: Adobe Illustrator 17.0.0, SVG Export Plug-In . SVG Version: 6.00 Build 0)  -->
<!DOCTYPE svg PUBLIC "-//W3C//DTD SVG 1.1//EN" "http://www.w3.org/Graphics/SVG/1.1/DTD/svg11.dtd">
<svg version="1.1" id="Capa_1" xmlns="http://www.w3.org/2000/svg" xmlns:xlink="http://www.w3.org/1999/xlink" x="0px" y="0px"
	 width="1280px" height="800px" viewBox="0 0 1280 800" enable-background="new 0 0 1280 800" xml:space="preserve">
<g>
	<path fill="#999999" d="M1032.993,759.202L838.581,564.789c52.151-59.956,83.725-138.182,83.725-223.681
		C922.306,152.905,769.224,0,581.197,0C392.993,0,240.089,153.082,240.089,341.109s153.082,341.109,341.109,341.109
		c85.499,0,163.725-31.574,223.681-83.725L999.29,792.905c4.612,4.612,10.82,7.095,16.851,7.095c6.031,0,12.24-2.306,16.851-7.095
		C1042.217,783.681,1042.217,768.426,1032.993,759.202z M287.805,341.109c0-161.774,131.619-293.215,293.215-293.215
		c161.774,0,293.215,131.619,293.215,293.215S742.794,634.501,581.02,634.501C419.423,634.501,287.805,502.882,287.805,341.109z"/>
</g>
</svg>
